#N canvas 40 51 951 585 10;
#X obj -47 43 dumpOSC 7000;
#X obj -47 68 OSCroute /joint;
#X floatatom -60 264 5 0 0 0 - - -;
#X floatatom -18 264 5 0 0 0 - - -;
#X floatatom 26 265 5 0 0 0 - - -;
#X obj -60 290 + 1;
#X obj -18 289 + 1;
#X obj 26 288 + 1;
#X obj -60 320 / 2;
#X obj 26 320 / 2;
#X obj -92 60 print;
#X obj -56 480 hsl 128 15 0 1 0 0 empty empty empty -2 -8 0 10 -262144
-1 -1 0 1;
#X obj 93 357 vsl 15 128 0 1 0 0 empty empty empty 0 -9 0 10 -262144
-1 -1 0 1;
#X obj -18 319 / 2;
#X floatatom -102 264 5 0 0 0 - - -;
#X obj -69 231 unpack f f f f;
#X obj -47 92 s joint;
#X obj 117 357 vsl 15 128 0 1 0 0 empty empty empty 0 -9 0 10 -262144
-1 -1 0 1;
#X obj -69 162 r joint;
#X obj -69 186 OSCroute /HandRight;
#X floatatom 181 262 5 0 0 0 - - -;
#X floatatom 223 262 5 0 0 0 - - -;
#X floatatom 267 263 5 0 0 0 - - -;
#X obj 181 288 + 1;
#X obj 223 287 + 1;
#X obj 267 286 + 1;
#X obj 181 318 / 2;
#X obj 267 318 / 2;
#X obj 185 478 hsl 128 15 0 1 0 0 empty empty empty -2 -8 0 10 -262144
-1 -1 0 1;
#X obj 334 355 vsl 15 128 0 1 0 0 empty empty empty 0 -9 0 10 -262144
-1 -1 0 1;
#X obj 223 317 / 2;
#X floatatom 139 262 5 0 0 0 - - -;
#X obj 172 236 unpack f f f f;
#X obj 358 355 vsl 15 128 0 1 0 0 empty empty empty 0 -9 0 10 -262144
-1 -1 0 1;
#X obj 172 160 r joint;
#X obj 172 184 OSCroute /HandLeft;
#X obj 155 87 sendOSC;
#X msg 155 61 connect localhost 7001;
#X obj 155 36 loadbang;
#X obj 368 118 hidin;
#X obj 368 91 hradio 15 1 0 8 empty empty empty 0 -8 0 10 -262144 -1
-1 1;
#X obj 94 61 r sendosc;
#X msg 340 70 print;
#X text 437 124 We'll use PD/OSC to send control information from HID/key
back to the Kinect application since its easiest \, and probably with
a low time/resource impact;
#X msg 348 45 show;
#X obj 391 55 bng 15 250 50 0 empty empty empty 17 7 0 10 -262144 -1
-1;
#X obj 390 257 print;
#X text -129 280 SkeletonId;
#X text -28 263 X;
#X text 15 263 Y;
#X text 59 265 Z;
#X text 439 254 OK. so [hidin] is not well developed like its counterpart
for OSX/Linux [hid] and is not recognizing my nanoKontrol. Will update
;
#X text 439 187 I'd like to have some rudimentary controls \, say camera
tilt \, synth control \, and others;
#X connect 0 0 1 0;
#X connect 0 0 10 0;
#X connect 1 0 16 0;
#X connect 2 0 5 0;
#X connect 3 0 6 0;
#X connect 4 0 7 0;
#X connect 5 0 8 0;
#X connect 6 0 13 0;
#X connect 7 0 9 0;
#X connect 8 0 11 0;
#X connect 9 0 17 0;
#X connect 13 0 12 0;
#X connect 15 0 14 0;
#X connect 15 1 2 0;
#X connect 15 2 3 0;
#X connect 15 3 4 0;
#X connect 18 0 19 0;
#X connect 19 0 15 0;
#X connect 20 0 23 0;
#X connect 21 0 24 0;
#X connect 22 0 25 0;
#X connect 23 0 26 0;
#X connect 24 0 30 0;
#X connect 25 0 27 0;
#X connect 26 0 28 0;
#X connect 27 0 33 0;
#X connect 30 0 29 0;
#X connect 32 0 31 0;
#X connect 32 1 20 0;
#X connect 32 2 21 0;
#X connect 32 3 22 0;
#X connect 34 0 35 0;
#X connect 35 0 32 0;
#X connect 37 0 36 0;
#X connect 38 0 37 0;
#X connect 39 0 46 0;
#X connect 39 1 46 0;
#X connect 40 0 39 0;
#X connect 41 0 36 0;
#X connect 42 0 39 0;
#X connect 44 0 39 0;
#X connect 45 0 39 0;
